<?xml version="1.0" encoding="utf-8"?>
<!-- Generator: Adobe Illustrator 26.0.1, SVG Export Plug-In . SVG Version: 6.00 Build 0)  -->
<svg version="1.1" id="Capa_1" xmlns="http://www.w3.org/2000/svg" xmlns:xlink="http://www.w3.org/1999/xlink" x="0px" y="0px"
	 viewBox="0 0 19.6 22.2" style="enable-background:new 0 0 19.6 22.2;" xml:space="preserve">
<style type="text/css">
	.st0{fill:#02498E;}
</style>
<desc>Created with Sketch.</desc>
<g>
	<path class="st0" d="M12.2,2"/>
	<path class="st0" d="M7.5,12l1.8,1.8l0.5,0.5l0.5-0.5l1.8-1.8l1.8,1.8l0.5,0.5l0.5-0.5l1-1v6.9H3.7c0-1.5,0-4.8,0-6.9l1,1l0.5,0.5
		l0.5-0.5C5.7,13.8,6.8,12.7,7.5,12 M12.1,11l-2.3,2.3L7.5,11l-2.3,2.3L2.9,11v9.4h13.8c0,0,0-9.4,0-9.4l-2.3,2.3L12.1,11L12.1,11z"
		/>
	<path class="st0" d="M12.5,2L12.5,2L12.5,2l-0.7,0H2.9v6.9l2.3,2.3l2.3-2.3l2.3,2.3l2.3-2.3l2.3,2.3l2.3-2.3V6.2L12.5,2z M12.5,3.1
		l3.1,3.1h-3.1V3.1z M14.4,10.2l-1.8-1.8l-0.5-0.5l-0.5,0.5l-1.8,1.8L8,8.4L7.5,7.9L7,8.4l-1.8,1.8L3.7,8.6V2.8h8.1v4.2h4.2v1.7
		L14.4,10.2z"/>
</g>
</svg>
