<?xml version="1.0" encoding="UTF-8"?>
<svg width="86px" height="64px" viewBox="0 0 86 64" version="1.1" xmlns="http://www.w3.org/2000/svg" xmlns:xlink="http://www.w3.org/1999/xlink">
    <!-- Generator: Sketch 60 (88103) - https://sketch.com -->
    <title>Artboard</title>
    <desc>Created with Sketch.</desc>
    <g id="Artboard" stroke="none" stroke-width="1" fill="none" fill-rule="evenodd">
        <g id="logo-alvi" fill-rule="nonzero">
            <path d="M52.4370229,59.2204536 C74.0223664,51.3227216 87.001145,32.4374433 81.4249313,17.0398351 C75.850687,1.6428866 53.8320611,-4.43579381 32.248687,3.45929897 C10.6633435,11.3570309 -2.31215267,30.2416495 3.26143511,45.6399175 C8.83764885,61.0395052 30.8536489,67.1188454 52.4370229,59.2211134" id="Path" fill="#02498E"></path>
            <path d="M51.3308397,59.0343918 C30.9252061,65.2239175 10.6508702,58.1390515 6.05151145,43.2059381 C1.44952672,28.2748041 14.2641832,11.1531546 34.6698168,4.96362887 C55.0767634,-1.2265567 75.3491298,5.85896907 79.949145,20.7894433 C84.5485038,35.7225567 71.7358168,52.8442062 51.3308397,59.0343918 M33.9588397,2.65896907 C10.7454046,9.70028866 -4.02296183,28.5453196 0.970290076,44.7505155 C5.96419847,60.9550515 28.8296947,68.3830103 52.0437863,61.3410309 C75.252626,54.2997113 90.0229618,35.4546804 85.0297099,19.2494845 C80.0358015,3.04494845 57.1703053,-4.38301031 33.9588397,2.65896907 Z" id="Shape" fill="#FDC42D"></path>
            <g id="Group" transform="translate(15.099237, 17.154639)" fill="#FFFFFF">
                <path d="M11.0401679,1.0451134 C11.5469771,1.0451134 11.9651603,1.14210309 12.300626,1.33542268 C12.6328092,1.52940206 12.9118168,1.78540206 13.1343664,2.10078351 C13.3575725,2.41880412 13.5381069,2.77839175 13.6799084,3.18812371 C13.8217099,3.59785567 13.9444733,4.01484536 14.0442595,4.44503093 C14.8543664,7.75191753 15.5220153,10.4788454 16.0478626,12.6218557 C16.474589,14.3487807 16.889718,16.0785795 17.2932214,17.811134 C17.5965191,19.1274227 17.8092214,20.1032577 17.9319847,20.736 C18.0540916,21.3694021 18.1125191,21.8088247 18.1125191,22.0522887 C18.1125191,22.3379794 18.0468702,22.531299 17.914916,22.6329072 C17.7823053,22.7351753 17.574855,22.787299 17.2932214,22.787299 L15.7445649,22.787299 C14.8740611,22.787299 14.1814656,22.6804124 13.6654656,22.464 C13.1488092,22.2508866 12.7555725,21.9381443 12.4811603,21.5310515 C12.2074046,21.1239588 12.011771,20.627134 11.8890076,20.0465155 C11.7559886,19.3936148 11.6547688,18.7345758 11.5857099,18.0717526 L6.30425954,18.0717526 L5.30114504,22.2983918 C5.20070229,22.6256495 4.96830534,22.787299 4.6039542,22.787299 L2.99424427,22.787299 C2.65711607,22.7862331 2.32098567,22.7504168 1.99112977,22.6804124 C1.66545535,22.6161899 1.35293538,22.4970664 1.06679389,22.3280825 C0.79778453,22.1693041 0.565134948,21.955268 0.384045802,21.6999588 C0.202854962,21.4439588 0.110290076,21.1338557 0.110290076,20.7663505 C0.110290076,20.3163711 0.252091603,19.5813608 0.535694656,18.5613196 C0.81929771,17.5406186 1.17905344,16.380701 1.61430534,15.0842062 C2.07407111,13.7176578 2.560183,12.3602063 3.07236641,11.0126186 C3.58082513,9.66517599 4.1021009,8.32265405 4.63612214,6.98523711 C5.14161832,5.71843299 5.60181679,4.60602062 6.01803053,3.64734021 C6.43358779,2.68931959 6.75198473,2.01369072 6.97453435,1.62639175 C7.13603053,1.34070103 7.28308397,1.17179381 7.41438168,1.1196701 C7.54699237,1.06754639 7.79383206,1.04313402 8.15883969,1.04313402 L11.0408244,1.04313402 L11.0408244,1.0451134 L11.0401679,1.0451134 Z M7.39862595,13.632 L10.8891756,13.632 L9.6149313,5.54754639 L7.39862595,13.632 Z M23.4871908,23.065732 C22.2326412,23.065732 21.3319389,22.7279175 20.7863969,22.0549278 C20.2415115,21.3819381 19.9670992,20.2695258 19.9670992,18.7176907 C19.9670992,18.4715876 19.981542,18.1661031 20.011084,17.7985979 C20.0432519,17.4310928 20.0819847,16.9573608 20.1331908,16.3760825 C20.1850534,15.7954639 20.2513588,15.0749691 20.3314504,14.2159175 C20.4121985,13.3588454 20.4981985,12.3157113 20.5887939,11.0917938 C20.8372643,7.73508731 21.0550089,4.37615484 21.242,1.01542268 C21.2616947,0.566762887 21.3129008,0.300206186 21.3929924,0.218391753 C21.4547023,0.159010309 21.6161985,0.126020619 21.8774809,0.126020619 L23.0617863,0.126020619 C23.6683817,0.126020619 24.1745344,0.198597938 24.5809008,0.34243299 C24.9846412,0.48428866 25.3096031,0.677608247 25.5525038,0.92371134 C25.7940916,1.16981443 25.9660916,1.4502268 26.0685038,1.76560825 C26.170916,2.08362887 26.2194962,2.41352577 26.2194962,2.76123711 C26.2194962,3.17030928 26.1952061,3.75752577 26.144,4.52156701 C26.0927939,5.28692784 26.0264885,6.15059794 25.9457405,7.10927835 C25.8649924,8.06993814 25.7842443,9.06886598 25.7034962,10.1113402 C25.6227481,11.1518351 25.539374,12.1474639 25.4619084,13.0982268 C25.388669,13.950105 25.3225802,14.802589 25.2636489,15.6555876 C25.2202657,16.2266787 25.1948688,16.7990062 25.1874962,17.3717113 C25.1874962,17.9028454 25.2833435,18.2802474 25.4763511,18.5039175 C25.6667328,18.7302268 25.8748397,18.8865979 26.0973893,18.9783093 C26.3205954,19.0706804 26.5280458,19.1320412 26.719084,19.161732 C26.9094656,19.1920825 27.0079389,19.2587216 27.0079389,19.3609897 C27.0079389,19.8096495 26.9560763,20.2543505 26.8562901,20.6937732 C26.7586537,21.125989 26.5719118,21.532821 26.3081221,21.888 C26.0435573,22.246268 25.6864275,22.531299 25.2314809,22.745732 C24.7785038,22.9562062 24.196855,23.065732 23.4871908,23.065732 M35.9342137,18.899134 C36.1771145,18.0394227 36.4042595,17.1955464 36.6169618,16.3562887 C36.8296641,15.5196701 37.0423664,14.6256495 37.2530992,13.676866 C37.4658015,12.7261031 37.6981985,11.6856082 37.952916,10.5534021 C38.2043511,9.42053608 38.5030534,8.12997938 38.8477099,6.67975258 C38.9094198,6.39406186 39.0000153,6.20470103 39.1221221,6.11364948 C39.244229,6.02127835 39.5061679,5.97707216 39.9118779,5.97707216 C40.2158321,5.97707216 40.618916,5.98696907 41.1257252,6.00676289 C41.6318779,6.0265567 42.1288397,6.09847423 42.6126718,6.21987629 C43.0971603,6.34193814 43.518626,6.52536082 43.8731298,6.77146392 C44.2276336,7.01690722 44.4035725,7.35208247 44.4035725,7.78226804 C44.4035725,8.12997938 44.2840916,8.69080412 44.0392214,9.46540206 C43.7546784,10.3589535 43.4404824,11.2426913 43.0971603,12.115134 C42.6897759,13.1606895 42.2598938,14.197249 41.8078168,15.2240825 C41.3572522,16.2491255 40.8965934,17.2696567 40.4259084,18.2855258 C40.0330534,19.138979 39.6177883,19.9818309 39.1805496,20.8131959 C38.7965038,21.5389691 38.5129008,22.0423918 38.329084,22.3280825 C38.1682443,22.553732 38.0257863,22.6856907 37.9036794,22.7252784 C37.7815725,22.764866 37.5780611,22.7846598 37.297084,22.7846598 L34.5962901,22.7846598 C34.1708855,22.7846598 33.8209771,22.7081237 33.5491908,22.5563711 C33.2815031,22.4084647 33.048643,22.2043613 32.8664427,21.9579381 C32.6768471,21.6997615 32.5237437,21.4164374 32.4114962,21.1160412 C32.2862852,20.7889453 32.1745867,20.4567852 32.076687,20.1204124 C31.5736426,18.3673035 31.0622322,16.6166305 30.5424733,14.8684536 C29.9463758,12.8621129 29.3340706,10.8606723 28.7056183,8.8643299 L28.2795573,7.51637113 C28.2116277,7.30095732 28.1407201,7.08650359 28.066855,6.87307216 C28.0351115,6.79960362 28.0145307,6.72175889 28.0058015,6.64214433 C28.0254962,6.50094845 28.1279084,6.3465567 28.3090992,6.18292784 C28.492916,6.01929897 28.722687,5.93946392 29.008916,5.93946392 C29.9385038,5.93946392 30.7335115,5.97443299 31.3919695,6.04635052 C32.049771,6.11892784 32.595313,6.24494845 33.0305649,6.42903093 C33.4658168,6.61245361 33.7986565,6.86845361 34.0336794,7.19571134 C34.2660763,7.52098969 34.4347939,7.95117526 34.5352366,8.48230928 C34.5549313,8.62614433 34.5962901,8.91183505 34.6547176,9.33872165 C34.7164275,9.76626804 34.7820763,10.2822268 34.8529771,10.8859381 C34.9238779,11.4889897 35.0098779,12.1527423 35.1103206,12.8771959 C35.2101069,13.6029691 35.3079237,14.3274227 35.3991756,15.0525361 C35.4891145,15.7776495 35.5797099,16.4750515 35.6729313,17.1506804 C35.7681221,17.8263093 35.8534656,18.409567 35.9342137,18.899134 M49.1105954,22.787299 C48.4843053,22.787299 47.9729008,22.72 47.5763817,22.588701 C47.1824885,22.4567423 46.867374,22.2654021 46.6349771,22.0225979 C46.3980403,21.7683508 46.2302768,21.4570392 46.1478626,21.1186804 C46.0572672,20.7610722 46.0106565,20.348701 46.0106565,19.8769485 C46.0106565,19.5714639 46.0257557,19.1373196 46.0572672,18.5758351 C46.0868092,18.0150103 46.1426107,17.2404124 46.2240153,16.2494021 C46.3047634,15.2583918 46.3999542,14.0047835 46.5128702,12.4819794 C46.6225038,10.963134 46.7597099,9.07810309 46.9231756,6.83348454 C46.9428702,6.38416495 46.9940763,6.11826804 47.0748244,6.03909278 C47.1365344,5.97707216 47.2980305,5.94672165 47.559313,5.94672165 L48.7436183,5.94672165 C49.3699084,5.94672165 49.881313,6.00940206 50.2771756,6.13080412 C50.6710687,6.25220619 50.9842137,6.43628866 51.2192366,6.68173196 C51.4516336,6.92783505 51.6131298,7.22276289 51.7037252,7.57113402 C51.7943206,7.91884536 51.8402748,8.30614433 51.8402748,8.7356701 C51.8402748,9.04115464 51.8205802,9.50037113 51.7792214,10.1133196 C51.7378626,10.7269278 51.6840305,11.558268 51.6131298,12.6093196 C51.5238208,13.9166609 51.4275344,15.2235113 51.3242748,16.5298144 C51.2021679,18.0915464 51.0505191,19.9739381 50.8693282,22.1789691 C50.8496336,22.4250722 50.7984275,22.588701 50.7176794,22.6678763 C50.6369313,22.7503505 50.4629618,22.7899381 50.2016794,22.7899381 L49.1105954,22.7899381 L49.1105954,22.787299 L49.1105954,22.787299 Z" id="Shape"></path>
            </g>
            <path d="M63.3412977,44.3150515 L63.6432824,46.5002887 L61.9718626,46.5002887 L63.3412977,44.3150515 L63.3412977,44.3150515 Z M63.9373893,48.7158763 L65.648855,48.7158763 L64.5932214,42.9954639 L63.0202748,42.9954639 L59.2316794,48.7158763 L60.628687,48.7158763 L61.5064122,47.2940206 L63.7424122,47.2940206 L63.9373893,48.7158763 Z M56.0884122,42.9954639 L55.8809618,43.8571546 L57.6416641,43.8571546 L56.4645802,48.7158763 L57.9850076,48.7158763 L59.1647176,43.8571546 L60.9851603,43.8571546 L61.1926107,42.9954639 L56.0884122,42.9954639 L56.0884122,42.9954639 Z M52.0129313,44.4456907 C52.0995878,44.0880825 52.5125191,43.8268041 53.1112366,43.8268041 C53.7690382,43.8268041 54.122229,44.1105155 53.9843664,44.6792577 C53.9645363,44.7576172 53.9428661,44.8354946 53.919374,44.9128247 L55.2500763,44.9128247 C55.2500763,44.9128247 55.3091603,44.7663505 55.3419847,44.6357113 C55.6163969,43.4969072 54.8423969,42.8865979 53.2963664,42.8865979 C51.7582137,42.8865979 50.5981985,43.6216082 50.3736794,44.5486186 C49.8767176,46.5959588 53.4027176,46.2535258 53.1729466,47.2003299 C53.0692214,47.6291959 52.5571603,47.8845361 51.8941069,47.8845361 C51.1450534,47.8845361 50.8043359,47.5117526 50.9349771,46.7985155 L49.6141221,46.7985155 C49.3252672,48.0877526 50.1458779,48.8247423 51.8396183,48.8247423 C53.6672824,48.8247423 54.7655878,47.8693608 54.9855115,46.9601649 C55.4010687,45.2486598 51.7286718,45.6122062 52.0129313,44.4463505 L52.0129313,44.4456907 Z M49.3449618,42.9954639 L47.8238779,42.9954639 L46.4367176,48.7158763 L47.959771,48.7158763 L49.3449618,42.9954639 L49.3449618,42.9954639 Z M43.7930382,43.8485773 C44.3910992,43.8485773 44.7672672,44.0069278 44.5821374,44.7729485 C44.4061985,45.5013608 43.9387786,45.740866 43.3577863,45.740866 L42.3612366,45.740866 L42.8207786,43.8485773 L43.7923817,43.8485773 L43.7930382,43.8485773 Z M42.1610076,46.5656082 L43.1004427,46.5656082 C43.6420458,46.5656082 43.9512519,46.8268866 43.7438015,47.6885773 C43.5678626,48.4103918 43.7438015,48.7158763 43.7438015,48.7158763 L45.2294351,48.7158763 L45.2445344,48.6564948 C45.2445344,48.6564948 45.034458,48.358268 45.237313,47.5269278 C45.4723359,46.5590103 44.6957099,46.2601237 44.5447176,46.2317526 C44.7305038,46.1882062 45.8334046,45.8523711 46.1124122,44.7010309 C46.441313,43.3464742 45.5635878,42.9954639 44.1416336,42.9954639 L41.5051756,42.9954639 L40.1180153,48.7158763 L41.6410687,48.7158763 L42.1610076,46.5649485 L42.1610076,46.5656082 Z M34.8431298,45.7804536 C35.1497099,44.5136495 35.9486565,43.8268041 36.9629313,43.8268041 C37.9693282,43.8268041 38.4439695,44.5110103 38.1373893,45.7804536 C37.8032366,47.1587629 36.9852519,47.8871753 35.9808244,47.8871753 C34.9645802,47.8845361 34.5043817,47.1785567 34.8431298,45.7804536 Z M33.2826565,45.7804536 C32.8598779,47.5269278 33.7678015,48.8247423 35.7536794,48.8247423 C37.7316794,48.8247423 39.2849313,47.5269278 39.7103359,45.7804536 C40.1331145,44.032 39.1733282,42.8885748 37.1953282,42.8885748 C35.2041985,42.8865979 33.7060916,44.0313402 33.2826565,45.7804536 Z M29.0023511,48.7158763 L30.5155573,48.7158763 L31.0427176,46.5438351 L33.940458,42.9954639 L32.5263817,42.9954639 L30.6245344,45.6999588 L30.0579847,42.9954639 L28.4036336,42.9954639 L29.5314809,46.5438351 L29.0023511,48.7158763 Z M25.3719695,44.3150515 L25.6739542,46.5002887 L24.0012214,46.5002887 L25.371313,44.3150515 L25.3719695,44.3150515 Z M25.9680611,48.7158763 L27.6814962,48.7158763 L26.6232366,42.9954639 L25.052916,42.9954639 L21.2616947,48.7158763 L22.6593588,48.7158763 L23.537084,47.2940206 L25.7724275,47.2940206 L25.9680611,48.7158763 Z M20.4062901,42.9954639 L17.7258473,46.4065979 L17.6838321,46.4065979 L16.7214198,42.9954639 L15.1760458,42.9954639 L13.7862595,48.7158763 L15.1241832,48.7158763 L15.8955573,45.5383093 L15.8981832,45.3575258 L15.9474198,45.3575258 L15.9848397,45.5099381 L16.9958321,48.4691134 L17.3372061,48.4691134 L19.7754046,45.5099381 L19.9290229,45.2856082 L19.9710382,45.2856082 L19.867313,45.5402887 L19.0979084,48.7178557 L20.6189924,48.7178557 L22.0061527,42.9974433 L20.4062901,42.9974433 L20.4062901,42.9954639 L20.4062901,42.9954639 Z M59.4693282,17.7444948 C59.5612366,17.3334433 60.0660763,16.678268 60.7409466,16.678268 C61.3889008,16.678268 61.6344275,17.2437113 61.4000611,18.3171959 C61.1453435,19.481732 60.5978321,19.904 59.9787634,19.904 C59.368229,19.904 59.1095725,19.392 59.2008244,18.9723711 L59.4693282,17.7451546 L59.4693282,17.7444948 Z M57.2635267,20.9867216 L58.7222443,20.9867216 C58.735374,20.9240412 58.9001527,20.2959175 58.9001527,20.2959175 L58.9362595,20.2959175 C58.9362595,20.2959175 59.1358321,21.1134021 60.2150992,21.1134021 C61.5425191,21.1134021 62.5751756,20.0715876 62.9204885,18.412866 C63.2789313,16.6908041 62.6710229,15.7670928 61.4762137,15.7670928 C60.3779084,15.7670928 59.7588397,16.6736495 59.7588397,16.6736495 L59.7227328,16.6736495 L60.3102901,13.8556701 L58.7478473,13.8556701 L57.2628702,20.9867216 L57.2635267,20.9867216 Z M57.2635267,15.872 L55.6341221,15.872 L54.9953588,18.7909278 C54.8620916,19.3979381 54.3670992,20.0247423 53.7060153,20.0247423 C53.3016183,20.0247423 53.1112366,19.7667629 53.2287481,19.222433 L53.9607328,15.8739794 L52.3339542,15.8739794 L51.5711145,19.3656082 C51.3242748,20.4912165 51.7569008,21.1134021 52.8046565,21.1134021 C54.0565802,21.1134021 54.7445802,20.0682887 54.7445802,20.0682887 L54.7905344,20.0682887 L54.6533282,20.9418557 L56.1514351,20.9418557 L57.2628702,15.872 L57.2635267,15.872 Z M48.8151756,20.710268 L50.3782748,20.710268 L51.887542,13.8556701 L50.3264122,13.8556701 L48.8151756,20.710268 L48.8151756,20.710268 Z M47.1943053,18.6365361 C46.9658473,19.5101031 46.3283969,19.964701 45.5333893,19.964701 C44.5329008,19.964701 44.0969924,19.1709691 44.4751298,17.3928247 C44.8020611,15.8416495 45.6699389,15.0063505 46.6789618,15.0063505 C47.4319542,15.0063505 47.8527634,15.398268 47.7057099,16.1016082 C47.6774809,16.2269691 47.6308702,16.3694845 47.6308702,16.3694845 L49.0370687,16.3694845 C49.0370687,16.3694845 49.1119084,16.1814433 49.1440763,16.0296907 C49.4368702,14.6408247 48.5499542,13.8556701 46.9034809,13.8556701 C44.8217557,13.8556701 43.2520916,15.2900619 42.7991145,17.4357113 C42.3481069,19.5734433 43.0748397,21.1134021 45.2898321,21.1134021 C46.9999847,21.1134021 48.2243359,20.2134433 48.5919695,18.6365361 L47.1949618,18.6365361 L47.1943053,18.6365361 Z" id="Shape" fill="#FDC42D"></path>
        </g>
    </g>
</svg>